# xmcd CD database file
#
# Track frame offsets:
#	150
#	18207
#	51057
#	82907
#	103432
#	127805
#	141782
#	165287
#	187357
#	215085
#	247982
#	267705
#	285552
#	318835
#
# Disc length: 4607 seconds
#
# Revision: 2
# Processed by: cddbd v1.5.2PL0 Copyright (c) Steve Scherf et al.
# Submitted via: CDex 1.51
#
DISCID=c711fd0e
DTITLE=Great White - Greatest Hits
DYEAR=2001
DGENRE=Rock
TTITLE0=Stick It
TTITLE1=Rock Me
TTITLE2=Face The Day (Blues Mix)
TTITLE3=Save Your Love
TTITLE4=Once Bitten Twice Shy
TTITLE5=Wasted Rock Ranger
TTITLE6=Mista Bone
TTITLE7=The Angel Song
TTITLE8=House Of Broken Love (Live)
TTITLE9=Babe I'm Gonna Leave You (Live Acoustic)
TTITLE10=Desert Moon (Live)
TTITLE11=Call It Rock N' Roll
TTITLE12=Old Rose Motel
TTITLE13=Big Goodby
EXTD=YEAR: 2001
EXTT0=
EXTT1=
EXTT2=
EXTT3=
EXTT4=
EXTT5=
EXTT6=
EXTT7=
EXTT8=
EXTT9=
EXTT10=
EXTT11=
EXTT12=
EXTT13=
PLAYORDER=
